<svg width="31" height="28" viewBox="0 0 31 28" fill="none" xmlns="http://www.w3.org/2000/svg">
<path d="M16.5938 21.2224L17.5309 26.2103H13.1113L14.2858 21.2224H16.5938Z" stroke="white" stroke-miterlimit="10" stroke-linecap="round" stroke-linejoin="round"/>
<path d="M16.5937 18.4902V21.2224H14.2856V18.4902H15.3064H16.5937Z" stroke="white" stroke-miterlimit="10" stroke-linecap="round" stroke-linejoin="round"/>
<path d="M15.3063 17.743V18.4901H14.2856H11.6055V14.3906L11.8162 14.3059L15.3063 17.743Z" stroke="white" stroke-miterlimit="10" stroke-linecap="round" stroke-linejoin="round"/>
<path d="M15.5432 0.5C18.7275 0.5 21.3063 3.14085 21.3063 6.39249C21.3063 9.64886 18.7275 12.2893 15.5432 12.2893C12.362 12.2893 9.7793 9.64886 9.7793 6.39249C9.77968 3.14085 12.362 0.5 15.5432 0.5Z" stroke="white" stroke-miterlimit="10" stroke-linecap="round" stroke-linejoin="round"/>
<path d="M19.2776 14.3906V18.4901H16.5937H15.3064V17.743L19.0635 14.3059L19.2776 14.3906Z" stroke="white" stroke-miterlimit="10" stroke-linecap="round" stroke-linejoin="round"/>
<path d="M14.2859 18.49V21.2222L13.1114 26.2102L13.108 26.2255H3.84277V20.9261V20.9218C5.20594 20.6949 6.24093 19.4828 6.24093 18.0273C6.24093 17.5429 6.1246 17.081 5.91737 16.6762L11.6058 14.3901V18.4896H14.2859V18.49Z" stroke="white" stroke-miterlimit="10" stroke-linecap="round" stroke-linejoin="round"/>
<path d="M6.24077 18.0277C6.24077 19.4828 5.2054 20.695 3.84262 20.9222C3.68854 20.9494 3.53409 20.9647 3.37231 20.9647C1.78382 20.9647 0.5 19.6482 0.5 18.0281C0.5 16.4119 1.78382 15.0955 3.37231 15.0955C4.47933 15.0955 5.4392 15.7385 5.91722 16.6774C6.12444 17.081 6.24077 17.5429 6.24077 18.0277Z" stroke="white" stroke-miterlimit="10" stroke-linecap="round" stroke-linejoin="round"/>
<path d="M27.5228 20.0796C28.5389 20.0796 29.3705 20.9341 29.3705 21.973V22.9473H25.6704V21.973C25.6704 20.9341 26.502 20.0796 27.5228 20.0796Z" stroke="white" stroke-miterlimit="10" stroke-linecap="round" stroke-linejoin="round"/>
<path d="M30.4998 22.9469V26.8456C30.4998 27.2071 30.2136 27.5001 29.8638 27.5001H25.1392C24.8117 27.5001 24.5444 27.2228 24.5444 26.8877V26.2253V22.9465H25.6699H29.37H30.4998V22.9469Z" stroke="white" stroke-miterlimit="10" stroke-linecap="round" stroke-linejoin="round"/>
<path d="M15.5432 0.5C18.7275 0.5 21.3063 3.14085 21.3063 6.39249C21.3063 9.64886 18.7275 12.2893 15.5432 12.2893C12.362 12.2893 9.7793 9.64886 9.7793 6.39249C9.77968 3.14085 12.362 0.5 15.5432 0.5Z" stroke="white" stroke-miterlimit="2.6131" stroke-linecap="round" stroke-linejoin="round"/>
<path d="M5.91724 16.6766L11.6056 14.3906L11.8163 14.3059L15.3065 17.743L19.0635 14.3059L19.2777 14.3906L27.0403 17.5123" stroke="white" stroke-miterlimit="2.6131" stroke-linecap="round" stroke-linejoin="round"/>
<path d="M13.108 26.2257H3.84277V20.9263" stroke="white" stroke-miterlimit="2.6131" stroke-linecap="round" stroke-linejoin="round"/>
<path d="M24.5442 26.2256H17.5347" stroke="white" stroke-miterlimit="2.6131" stroke-linecap="round" stroke-linejoin="round"/>
<path d="M23.1287 20.7451V26.2103H17.5309H13.1113H7.75415V20.7451" stroke="white" stroke-miterlimit="2.6131" stroke-linecap="round" stroke-linejoin="round"/>
<path d="M14.2856 18.4901H11.6055V14.3906V14.3059" stroke="white" stroke-miterlimit="2.6131" stroke-linecap="round" stroke-linejoin="round"/>
<path d="M19.2777 14.3059V14.3906V18.4901H16.5938" stroke="white" stroke-miterlimit="2.6131" stroke-linecap="round" stroke-linejoin="round"/>
<path d="M14.2856 21.2224V18.4902H15.3064H16.5937V21.2224" stroke="white" stroke-miterlimit="2.6131" stroke-linecap="round" stroke-linejoin="round"/>
<path d="M13.1079 26.2257H17.5348L17.531 26.2103L16.5938 21.2224H14.2858L13.1114 26.2103L13.1079 26.2257Z" stroke="white" stroke-miterlimit="2.6131" stroke-linecap="round" stroke-linejoin="round"/>
<path d="M29.37 22.9469H30.4998V26.8456C30.4998 27.2071 30.2136 27.5001 29.8638 27.5001H25.1392C24.8117 27.5001 24.5444 27.2228 24.5444 26.8877V26.2253V22.9465H25.6699" stroke="white" stroke-miterlimit="2.6131" stroke-linecap="round" stroke-linejoin="round"/>
<path d="M25.6704 22.9468V21.9725C25.6704 20.9336 26.5024 20.0791 27.5228 20.0791C28.5389 20.0791 29.3705 20.9336 29.3705 21.9725V22.9468H25.6704Z" stroke="white" stroke-miterlimit="2.6131" stroke-linecap="round" stroke-linejoin="round"/>
<path d="M26.5469 26.2031L27.5225 25.2253L28.4932 24.2439" stroke="white" stroke-miterlimit="2.6131" stroke-linecap="round" stroke-linejoin="round"/>
<path d="M28.4932 26.2031L27.5225 25.2253L26.5469 24.2439" stroke="white" stroke-miterlimit="2.6131" stroke-linecap="round" stroke-linejoin="round"/>
<path d="M3.84262 20.9219C3.68854 20.9491 3.53409 20.9645 3.37231 20.9645C1.78382 20.9645 0.5 19.648 0.5 18.0279C0.5 16.4117 1.78382 15.0952 3.37231 15.0952C4.47933 15.0952 5.4392 15.7383 5.91722 16.6771C6.12444 17.0816 6.24077 17.5435 6.24077 18.0283C6.24077 19.483 5.20578 20.6951 3.84262 20.9219Z" stroke="white" stroke-miterlimit="2.6131" stroke-linecap="round" stroke-linejoin="round"/>
<path d="M2.14478 17.6081L2.73988 18.7592L5.21738 17.2742" stroke="white" stroke-miterlimit="2.6131" stroke-linecap="round" stroke-linejoin="round"/>
</svg>
