<svg width="80" height="123" viewBox="0 0 80 123" fill="none" xmlns="http://www.w3.org/2000/svg">
<g filter="url(#filter0_d_230_169)">
<path d="M19.1441 100.91C16.9508 100.885 15.1914 98.8565 15.2143 96.3784L15.9587 15.4867C15.9815 13.0087 17.7779 11.0203 19.9711 11.0452L60.4297 11.5061C62.623 11.5311 64.3824 13.5601 64.3595 16.0381L63.6151 96.9298C63.5923 99.4078 61.7959 101.396 59.6027 101.371L19.1441 100.91Z" fill="#5655B9"/>
<path d="M60.0709 13.2574C61.7029 13.2574 63.0218 14.7623 63.0218 16.6246V97.6831C63.0218 99.5454 61.7029 101.05 60.0709 101.05H19.9291C18.2971 101.05 16.9782 99.5454 16.9782 97.6831V16.6246C16.9782 14.7623 18.2971 13.2574 19.9291 13.2574H60.0709ZM60.0709 11H19.9291C17.209 11 15 13.5207 15 16.6246V97.6831C15 100.787 17.209 103.308 19.9291 103.308H60.0709C62.791 103.308 65 100.787 65 97.6831V16.6246C65 13.5207 62.791 11 60.0709 11Z" fill="white"/>
</g>
<path d="M25 13.968V12.5386H54.2308V14.236C53.8205 15.1651 52.265 15.5165 51.5385 15.576C44.3162 15.6058 29.4103 15.6475 27.5641 15.576C25.7179 15.5046 25.0855 14.4742 25 13.968Z" fill="white"/>
<defs>
<filter id="filter0_d_230_169" x="0" y="0" width="80" height="122.308" filterUnits="userSpaceOnUse" color-interpolation-filters="sRGB">
<feFlood flood-opacity="0" result="BackgroundImageFix"/>
<feColorMatrix in="SourceAlpha" type="matrix" values="0 0 0 0 0 0 0 0 0 0 0 0 0 0 0 0 0 0 127 0" result="hardAlpha"/>
<feOffset dy="4"/>
<feGaussianBlur stdDeviation="7.5"/>
<feColorMatrix type="matrix" values="0 0 0 0 0 0 0 0 0 0 0 0 0 0 0 0 0 0 0.1 0"/>
<feBlend mode="normal" in2="BackgroundImageFix" result="effect1_dropShadow_230_169"/>
<feBlend mode="normal" in="SourceGraphic" in2="effect1_dropShadow_230_169" result="shape"/>
</filter>
</defs>
</svg>
